<?xml version="1.0" encoding="UTF-8"?>
<svg id="Layer_2" data-name="Layer 2" xmlns="http://www.w3.org/2000/svg" xmlns:xlink="http://www.w3.org/1999/xlink" viewBox="0 0 500 200">
  <defs>
    <style>
      .cls-1 {
        fill: #9dcb44;
      }

      .cls-2 {
        fill: #fdc74d;
      }

      .cls-3 {
        fill: #fff4db;
      }

      .cls-4 {
        filter: url(#drop-shadow-1);
      }

      .cls-4, .cls-5, .cls-6, .cls-7 {
        fill: none;
      }

      .cls-5 {
        filter: url(#drop-shadow-4);
      }

      .cls-8 {
        fill: #bbd0ff;
      }

      .cls-9 {
        fill: #231333;
      }

      .cls-10 {
        fill: #f54480;
      }

      .cls-6 {
        filter: url(#drop-shadow-2);
      }

      .cls-11 {
        fill: #39beb1;
      }

      .cls-7 {
        filter: url(#drop-shadow-3);
      }
    </style>
    <filter id="drop-shadow-1" filterUnits="userSpaceOnUse">
      <feOffset dx="-2" dy="3"/>
      <feGaussianBlur result="blur" stdDeviation="0"/>
      <feFlood flood-color="#1c0d3f" flood-opacity=".1"/>
      <feComposite in2="blur" operator="in"/>
      <feComposite in="SourceGraphic"/>
    </filter>
    <filter id="drop-shadow-2" filterUnits="userSpaceOnUse">
      <feOffset dx="-2" dy="3"/>
      <feGaussianBlur result="blur-2" stdDeviation="0"/>
      <feFlood flood-color="#1c0d3f" flood-opacity=".1"/>
      <feComposite in2="blur-2" operator="in"/>
      <feComposite in="SourceGraphic"/>
    </filter>
    <filter id="drop-shadow-3" filterUnits="userSpaceOnUse">
      <feOffset dx="-2" dy="3"/>
      <feGaussianBlur result="blur-3" stdDeviation="0"/>
      <feFlood flood-color="#1c0d3f" flood-opacity=".1"/>
      <feComposite in2="blur-3" operator="in"/>
      <feComposite in="SourceGraphic"/>
    </filter>
    <filter id="drop-shadow-4" filterUnits="userSpaceOnUse">
      <feOffset dx="-2" dy="3"/>
      <feGaussianBlur result="blur-4" stdDeviation="0"/>
      <feFlood flood-color="#1c0d3f" flood-opacity=".1"/>
      <feComposite in2="blur-4" operator="in"/>
      <feComposite in="SourceGraphic"/>
    </filter>
  </defs>
  <g id="Layer_1-2" data-name="Layer 1">
    <rect class="cls-8" width="500" height="200"/>
    <g class="cls-4">
      <path class="cls-11" d="m129.9,99.81c-.06,11.13-1.41,21.26-4.01,31.26-3.22,12.42-10.61,21.1-22.53,25.87-9.55,3.82-19.37,4.68-29.39,2.39-9.11-2.09-15.69-7.76-20.74-15.41-3.76-5.7-5.95-11.98-7.07-18.69-1.18-7.01-1.25-14.08-1.41-21.15-.12-5.44,0-10.87,1-16.24,1.36-7.25,3.15-14.36,6.8-20.87,3.58-6.38,8.7-11.29,14.66-15.41,4.47-3.09,9.35-5.27,14.73-6.05,4.32-.62,8.65-.46,12.99.38,10.39,2,18.37,7.55,24.27,16.16,4.68,6.81,7.56,14.39,9.14,22.49,1.04,5.32,1.52,10.67,1.56,15.27Zm-26.04,6.47c.26-5.05.15-10.08-1.21-14.99-1.35-4.84-3.61-9.13-7.81-12.14-4.64-3.33-9.52-2.92-13.39,1.14-1.49,1.57-2.74,3.32-3.65,5.3-2.66,5.75-3.52,11.83-3.44,18.16.18,5.03.86,10.03,2.75,14.82,1.38,3.52,3.39,6.53,6.79,8.38,1.81.98,3.72,1.58,5.86,1.3,5.78-.75,9.26-4.33,11.48-9.37,1.75-4,2.39-8.27,2.62-12.6Z"/>
      <g>
        <path class="cls-9" d="m136,93.96c-.92-11.95-4.28-23.14-10.62-33.34-2.99-4.82-6.87-8.76-11.83-11.66-5.31-3.12-11.08-4.95-16.94-6.53-9.5-2.57-18.72-1.7-27.37,3.15-11.77,6.59-19.55,16.44-23.73,29.25-3.57,10.97-4.62,22.25-4.53,33.44.14,5.58.45,10.88,1.34,16.13,1.1,6.47,3.27,12.59,5.93,18.56,2.67,5.99,6.4,11.18,11.65,15.13,7.71,5.79,16.54,8.14,26.07,8.14,5.78,0,11.31-1.31,16.77-3.11,8.43-2.79,15.57-7.36,20.86-14.58,4.61-6.31,7.61-13.39,9.47-20.94,2.72-11.05,3.81-22.26,2.93-33.64Zm-10.11,37.11c-3.22,12.42-10.61,21.1-22.53,25.87-9.55,3.82-19.37,4.68-29.39,2.39-9.11-2.09-15.69-7.76-20.74-15.41-3.76-5.7-5.95-11.98-7.07-18.69-1.18-7.01-1.25-14.08-1.41-21.15-.12-5.44,0-10.87,1-16.24,1.36-7.25,3.15-14.36,6.8-20.87,3.58-6.38,8.7-11.29,14.66-15.41,4.47-3.09,9.35-5.27,14.73-6.05,4.32-.62,8.65-.46,12.99.38,10.39,2,18.37,7.55,24.27,16.16,4.68,6.81,7.56,14.39,9.14,22.49,1.04,5.32,1.52,10.67,1.56,15.27-.06,11.13-1.41,21.26-4.01,31.26Z"/>
        <path class="cls-9" d="m94.84,79.15c-4.64-3.33-9.52-2.92-13.39,1.14-1.49,1.57-2.74,3.32-3.65,5.3-2.66,5.75-3.52,11.83-3.44,18.16.18,5.03.86,10.03,2.75,14.82,1.38,3.52,3.39,6.53,6.79,8.38,1.81.98,3.72,1.58,5.86,1.3,5.78-.75,9.26-4.33,11.48-9.37,1.75-4,2.39-8.27,2.62-12.6.26-5.05.15-10.08-1.21-14.99-1.35-4.84-3.61-9.13-7.81-12.14Zm6.56,24.39c-.13,5.16-.42,10.3-2.4,15.17-1.78,4.38-5.64,6.75-10,6.09-2-.31-3.57-1.26-4.71-2.97-1.85-2.79-2.99-5.86-3.24-9.16-.39-5.13-.69-10.3.27-15.4.99-5.34,2.16-10.65,5.27-15.28,1.31-1.95,3-2.47,5.17-1.48,3.42,1.57,5.51,4.41,7.03,7.69,1.93,4.13,2.41,8.58,2.6,13.07.04.76,0,1.52,0,2.27Z"/>
      </g>
      <path class="cls-3" d="m61.54,65.21c.14.82-.18,1.49-.36,2.16-1.51,5.51-3.86,10.73-5.67,16.14-1.17,3.5-2.03,7.05-2.39,10.72-.08.83-.18,1.67-.56,2.44-.64,1.3-1.77,1.37-2.57.15-.45-.69-.59-1.47-.68-2.27-.42-4.12.12-8.16,1.52-12.02,1.73-4.77,3.84-9.38,6.66-13.63.64-.97,1.33-1.9,2.18-2.69.48-.45.93-1,1.86-.99Z"/>
      <path class="cls-3" d="m107.52,119.81c.65.97.23,1.73.03,2.38-1.16,3.79-3.13,7.16-5.9,10-1.67,1.72-3.74,2.83-6.16,3.21-.77.12-1.51.03-2.22-.3-.56-.26-.89-.7-.89-1.31,0-.62.37-1.03.92-1.28.11-.05.23-.08.34-.11,3.73-.72,6.27-3.06,8.47-6,1.67-2.22,3.52-4.31,5.4-6.6Z"/>
      <path class="cls-3" d="m69.18,57.21c.16,1.76-1.64,4.54-3.24,5.07-.58.19-1.11.1-1.56-.29-.52-.45-.53-1.06-.37-1.66.46-1.78,3.2-3.46,5.17-3.12Z"/>
    </g>
    <g class="cls-6">
      <path class="cls-1" d="m450.16,113.7c2.4,8.91.62,17.09-4.87,24.55-6.44,8.73-15.41,12.84-25.77,14.53-6.93,1.15-13.8.66-20.57-1.19-5.2-1.41-9.9-3.84-14.07-7.26-2.35-1.94-4.07-4.31-4.19-7.53-.07-1.79.94-3.23,1.74-4.69,2.11-3.83,4.49-7.48,7.66-10.56,1.46-1.43,2.81-1.98,4.82-1.12,2.24.94,4.21,2.43,6.57,3.12,5.38,1.54,10.76,1.96,16.14.47.41-.11.84-.25,1.25-.38,4.43-1.46,7.19-5.32,6.89-9.59-.34-4.93-3.97-9.15-8.52-9.93-2.33-.4-4.68-.25-7.02-.31-1.65-.03-3.33-.04-4.66-1.26-.69-.63-1.16-1.4-1.39-2.28-.03-.12-.06-.25-.08-.38-.62-3.41-.6-6.8.37-10.16.57-1.99,1.71-3.25,3.86-3.67,2.85-.56,5.73-.68,8.58-1.01,2.7-.3,5.17-1.2,7.29-2.83,3.81-2.92,4.52-5.73,3.5-11.13-1.86-9.87-12.49-12.39-19.09-10.24-3.13,1.01-5.97,2.56-8.77,4.24-1.81,1.08-3.59,2.21-5.75,2.49-1.55.2-2.8-.29-3.59-1.63-2.37-4-3.81-8.31-4-12.98-.12-2.86,1.07-5.08,3.39-6.75,4.73-3.42,10.08-5.55,15.51-7.53,3.93-1.42,7.89-2.38,12.1-1.94,9.14.95,17.61,3.65,24.45,10.11,3.57,3.37,6.03,7.57,7.99,12.08,3.5,8.06,2.77,16.11-.07,24.11-1.91,5.33-5.08,9.78-9.98,12.84-.24.14-.43.36-.57.47,4.67,5.25,9,10.58,10.83,17.35Z"/>
      <path class="cls-9" d="m450.57,92.94c2.71-3.68,4.82-7.67,6.2-12.04,3.56-11.19,1.97-21.63-5.16-30.98-5.25-6.87-12.38-11.24-20.48-14.12-7.38-2.61-14.9-3.46-22.62-2.02-5.4,1-10.14,3.59-14.94,6.07-2.67,1.38-5,3.15-7.09,5.3-2.37,2.44-4.16,5.25-3.91,8.77.37,5.31,1.98,10.25,5.31,14.51,2.28,2.93,5.09,4.68,9.01,3.73,1.49-.36,2.9-.91,4.27-1.6,2.76-1.38,5.36-3.12,8.37-3.96,3.86-1.08,7.6-.89,10.98,1.54,1.43,1.03,2.26,2.59,3.16,4.07,1.78,2.92,1.23,5.69-1.54,7.65-1.03.73-2.19,1.13-3.38,1.48-3.04.87-6.21.69-9.3,1.24-4.88.85-7.62,3.45-8.42,8.35-.56,3.34-.29,6.63.37,9.89.18.87.38,1.72.6,2.58.56,2.1,1.89,3.39,3.98,3.99,2.03.58,4.12.78,6.22.91,5.12.32,8.4,3.22,8.94,7.89.31,2.59-.46,3.88-2.87,4.76-.43.17-.88.31-1.33.42-.15.03-.3.06-.45.09-4.12.74-8.2.4-12.28-.38-3.09-.6-5.77-2.15-8.48-3.63-1.02-.56-2.06-1-3.27-.99-2.4.03-4.3,1.19-5.82,2.87-3.86,4.28-7,9.01-9.04,14.48-2.38,6.41.6,14.12,6.5,17.37,1.85,1.01,3.72,1.93,5.64,2.8,6.75,3.02,13.84,4.9,21.13,5.88,6.94.94,13.71-.43,20.27-2.73,4.34-1.53,8.35-3.69,11.82-6.78,2.93-2.59,5.19-5.71,7.37-8.93,4.72-7.02,6-14.91,5.21-23.05-.77-7.85-3.69-14.93-9.87-20.41,1.79-1.53,3.51-3.12,4.9-5.01Zm-.41,20.77c2.4,8.91.62,17.09-4.87,24.55-6.44,8.73-15.41,12.84-25.77,14.53-6.93,1.15-13.8.66-20.57-1.19-5.2-1.41-9.9-3.84-14.07-7.26-2.35-1.94-4.07-4.31-4.19-7.53-.07-1.79.94-3.23,1.74-4.69,2.11-3.83,4.49-7.48,7.66-10.56,1.46-1.43,2.81-1.98,4.82-1.12,2.24.94,4.21,2.43,6.57,3.12,5.38,1.54,10.76,1.96,16.14.47.41-.11.84-.25,1.25-.38,4.43-1.46,7.19-5.32,6.89-9.59-.34-4.93-3.97-9.15-8.52-9.93-2.33-.4-4.68-.25-7.03-.31-1.65-.03-3.33-.04-4.66-1.26-.69-.63-1.16-1.4-1.39-2.28-.03-.12-.06-.25-.08-.38-.62-3.41-.6-6.8.37-10.16.57-1.99,1.71-3.25,3.86-3.67,2.85-.56,5.73-.68,8.58-1.01,2.7-.3,5.17-1.2,7.29-2.83,3.81-2.92,4.52-5.73,3.5-11.13-1.86-9.87-12.49-12.39-19.09-10.24-3.13,1.01-5.97,2.56-8.77,4.24-1.81,1.08-3.59,2.21-5.75,2.49-1.55.2-2.8-.29-3.59-1.63-2.37-4-3.81-8.31-4-12.98-.12-2.86,1.07-5.08,3.39-6.75,4.73-3.42,10.08-5.55,15.51-7.53,3.93-1.42,7.89-2.38,12.1-1.94,9.14.95,17.61,3.65,24.45,10.11,3.57,3.37,6.03,7.57,7.99,12.08,3.5,8.06,2.77,16.11-.07,24.11-1.91,5.33-5.08,9.78-9.98,12.84-.24.14-.43.36-.57.47,4.67,5.25,9,10.58,10.83,17.35Z"/>
      <path class="cls-3" d="m415.91,129.71c-.21.8-.84.89-1.34,1.11-1.26.54-2.61.77-3.96.88-3.95.33-7.91.25-11.83-.41-1.75-.3-3.42-.97-4.72-2.27-.72-.72-1.13-1.58-.62-2.57.51-.98,1.49-1.08,2.38-.79,5.57,1.77,11.4,2.13,17.11,3.16,1,.18,2.02.34,2.99.91Z"/>
      <path class="cls-3" d="m409.7,43.12c-.22.62-.73.79-1.13,1.05-2.25,1.44-4.62,2.69-7,3.9-2.24,1.13-4.44,2.33-6.43,3.88-.32.25-.69.47-1.07.59-.65.2-1.31.18-1.84-.35-.55-.55-.66-1.19-.44-1.93.23-.75.69-1.36,1.32-1.74,4.69-2.8,9.59-5.06,15.11-5.63.46-.05.97-.1,1.49.22Z"/>
      <path class="cls-3" d="m421.42,42.73c-.04.42-.15.61-.4.73-1.8.82-3.68,1.1-5.62.79-.75-.12-1.26-.62-1.3-1.42-.04-.85.4-1.48,1.21-1.62,2.28-.4,4.31.22,6.11,1.53Z"/>
      <path class="cls-3" d="m415.11,90.42c-.74,1.42-4.05,2.84-5.52,2.37-1.23-.39-1.61-1.66-.77-2.63,1.27-1.47,5.07-1.31,6.29.26Z"/>
    </g>
    <g class="cls-7">
      <path class="cls-10" d="m337.72,124.71c2.96.19,4.31,1.77,4.21,4.92-.14,4.79-.36,9.58-.56,14.37-.09,2.16-.23,4.31-.64,6.43-.42,2.23-1.07,2.83-3.34,2.98-7.72.53-15.42.14-23.13-.08-2.48-.08-4.95-.02-7.43-.02-9.78-.53-19.58-.51-29.36-.58-3.06-.02-3.21-.12-3.67-3.14-.78-5.25-.41-10.4,1.24-15.48,2.45-7.55,6.58-14.14,11.28-20.43,3.69-4.93,7.77-9.54,11.65-14.31,3.05-3.76,5.88-7.68,7.62-12.26,1.57-4.13,1.5-8.18-.74-12.01-2.32-3.96-6.41-5-10.7-2.9-3.47,1.71-6.21,4.34-8.66,7.27-1.7,2.02-3.26,4.14-4.72,6.34-1.1,1.65-1.51,1.74-3.24.76-5.86-3.3-9.99-8.26-13.22-14.04-.85-1.51-.54-3.18-.04-4.78.63-1.99,1.47-3.86,2.46-5.64,1-1.79,2.16-3.49,3.42-5.13,4.43-5.79,9.58-10.71,16.16-14.01,7.92-3.96,16.27-5.73,25.08-4.69,7.25.85,13.55,3.66,17.9,9.87,2.65,3.81,3.49,8.18,3.79,12.7.52,7.95-1.46,15.45-4.32,22.76-3.3,8.42-7.57,16.38-11.8,24.36-2.51,4.73-5.19,9.37-8.16,13.82-.78,1.17,0,2.52,1.49,2.51,2.64-.02,5.27-.14,7.9-.19,1.06-.02,2.12-.03,3.18-.03,5.46,0,10.91.28,16.35.63Z"/>
      <path class="cls-9" d="m344.87,125.28c-1.09-1.84-2.6-2.77-4.72-3.01-6.26-.71-12.52-.91-18.8-.84-.47,0-.95,0-1.42.01-1.54.03-3.08,0-4.76,0,.63-1.21,1.21-2.37,1.85-3.51,4.46-8.03,9.24-15.88,13.41-24.07,3.95-7.75,7.19-15.67,7.71-24.5.34-5.72.06-11.35-1.95-16.77-3.16-8.51-9.66-13.52-17.96-16.33-6.69-2.27-13.57-1.93-20.38-.49-10.36,2.19-19.17,7.19-26.26,15.09-2.84,3.16-5.43,6.5-7.44,10.2-.92,1.68-1.72,3.44-2.36,5.29-.75,2.15-1.19,4.36-.55,6.58,1.36,4.7,3.55,9.02,6.75,12.71,2.36,2.73,5.2,5.02,8.65,6.28,3.14,1.15,6.26,1.16,8.46-2.18.68-1.03,1.38-2.05,2.06-3.08,2.07-3.17,4.46-6.06,7.48-8.34,1.75-1.32,3.73-2.2,6-2.06,1.54.1,2.06.64,2.4,2.15.53,2.33.25,4.59-.57,6.81-1.44,3.88-3.74,7.24-6.17,10.51-4.41,5.93-9.29,11.51-13.61,17.51-4.31,5.98-8.13,12.23-10.54,19.26-2.49,7.25-2.98,14.48-.23,21.79.78,2.08,2.15,3.33,4.27,3.75,3.04.61,6.13.52,9.2.52,6.31,0,12.62-.22,18.93-.19,6.48.02,12.95.26,19.42.34,5.11.06,10.23.09,15.31-.67,2.5-.38,4.73-1.06,5.86-3.69.48-1.11.51-2.24.69-3.37.94-5.72,1.37-11.49,1.59-17.28.12-3.08-.79-5.81-2.32-8.42Zm-3.5,18.72c-.09,2.16-.23,4.31-.64,6.43-.42,2.23-1.07,2.83-3.34,2.98-7.72.53-15.42.14-23.13-.08-2.48-.08-4.95-.02-7.43-.02-9.78-.53-19.58-.51-29.36-.58-3.06-.02-3.21-.12-3.67-3.14-.78-5.25-.41-10.4,1.24-15.48,2.45-7.55,6.58-14.14,11.28-20.43,3.69-4.93,7.77-9.54,11.65-14.31,3.05-3.76,5.88-7.68,7.62-12.26,1.57-4.13,1.5-8.18-.74-12.01-2.32-3.96-6.41-5-10.7-2.9-3.47,1.71-6.21,4.34-8.66,7.27-1.7,2.02-3.26,4.14-4.72,6.34-1.1,1.65-1.51,1.74-3.24.76-5.86-3.3-9.99-8.26-13.22-14.04-.85-1.51-.54-3.18-.04-4.78.63-1.99,1.47-3.86,2.46-5.64,1-1.79,2.16-3.49,3.42-5.13,4.43-5.79,9.58-10.71,16.16-14.01,7.92-3.96,16.27-5.73,25.08-4.69,7.25.85,13.55,3.66,17.9,9.87,2.65,3.81,3.49,8.18,3.79,12.7.52,7.95-1.46,15.45-4.32,22.76-3.3,8.42-7.57,16.38-11.8,24.36-2.51,4.73-5.19,9.37-8.16,13.82-.78,1.17,0,2.52,1.49,2.51,2.64-.02,5.27-.14,7.9-.19,1.06-.02,2.12-.03,3.18-.03,5.46,0,10.91.28,16.35.63,2.96.19,4.31,1.77,4.21,4.92-.14,4.79-.36,9.58-.56,14.37Z"/>
      <path class="cls-3" d="m285.24,51.6c-.05.8-.51,1.22-.87,1.66-1.72,2.16-3.56,4.2-5.51,6.15-3,3-5.78,6.18-7.75,9.99-.25.49-.61.94-.99,1.34-.53.54-1.18.8-1.96.51-.76-.29-1.09-.89-1.18-1.66-.1-.91.18-1.74.57-2.54,3.03-6.18,7.73-10.79,13.52-14.35,1.21-.75,2.53-1.35,4.16-1.1Z"/>
      <path class="cls-3" d="m328.03,129.51c-.91.69-1.88.76-2.79.93-4.14.79-8.32,1-12.53.97-.85,0-1.68-.09-2.45-.46-.61-.29-1.04-.74-1.07-1.47-.04-.77.37-1.29,1.01-1.63.61-.33,1.28-.49,1.96-.5,4.36-.1,8.72-.02,13,.96.96.22,1.94.45,2.88,1.2Z"/>
      <path class="cls-3" d="m294.26,44.93c.25.57-.03.93-.29,1.27-.96,1.25-2.13,2.25-3.53,2.98-.75.39-1.58.57-2.14-.25-.55-.79-.14-1.5.5-2.1,1.51-1.42,3.64-2.18,5.46-1.91Z"/>
    </g>
    <g class="cls-5">
      <path class="cls-2" d="m220.25,63.55c-.18,6.07.58,12.1.48,18.17-.13,7.84-.32,15.67-.53,23.52-.23,8.79-.49,17.57-.78,26.37-.23,7.08-.33,14.18-1.07,21.24-.17,1.56-.48,3.12-.86,4.64-.55,2.22-1.96,3.37-4.26,3.54-6.2.48-12.34-.14-18.47-1.05-1.85-.28-3.7-.49-5.55-.79-1.82-.29-2.3-.86-2.44-2.72-.36-4.53.21-9.03.54-13.53.53-7.23,1.13-14.45,1.74-21.67.75-8.67,1.55-17.34,2.31-26.01.38-4.41.76-8.84,1.1-13.26.09-1.07.18-2.15.26-3.23.1-1.4.06-2.81.05-4.23-.01-.56.12-1.23-.56-1.53-.75-.32-1.26.2-1.72.66-1.14,1.15-2.25,2.33-3.39,3.48-5.63,5.7-11.08,11.57-16.17,17.76-1.51,1.84-2.33,1.95-4.28.57-4.12-2.91-7.72-6.41-11.15-10.08-1.41-1.52-1.76-3.19-.75-5.13,1.58-3.1,3.76-5.76,5.94-8.42,4.09-4.95,8.2-9.91,12.4-14.77,4.34-5.01,8.64-10.06,13.76-14.35,1.6-1.34,3.32-2.17,5.15-2.61,1.45-.34,2.99-.45,4.58-.34,5.52.35,10.98,1.18,16.43,2.04,1.23.19,2.43.49,3.66.75,1.49.3,2.23,1.22,2.41,2.74.7,6.06,1.4,12.12,1.15,18.24Z"/>
      <path class="cls-9" d="m226.66,82.05c-.07-5.96-.28-11.93-.44-17.91-.12-4.67-.12-9.36-.45-14.04-.32-4.5-4.36-10.24-9.99-10.94-5.96-.73-11.89-1.67-17.91-2-2.25-.12-4.39.04-6.43.56-2.14.55-4.17,1.51-6.09,2.95-4.74,3.53-8.58,7.93-12.42,12.32-3.44,3.94-6.74,7.99-10.19,11.91-3.59,4.09-6.96,8.34-9.67,13.1-2.54,4.47-1.84,8.73.81,12.78,2.69,4.13,6.67,6.91,10.83,9.36,3.91,2.3,5.55,2,8.83-1.13,4.38-4.19,8.33-8.8,12.38-13.3,1.3-1.44,2.57-2.92,4.07-4.64,0,.39.01.6.01.74,0,.07,0,.12-.01.18-.84,8.88-1.7,17.76-2.54,26.63-1.11,11.86-2.21,23.71-3.1,35.59-.26,3.59-.6,7.2-.46,10.81.09,2.29.23,4.65,1.91,6.42,2.15,2.24,4.79,3.59,7.96,3.98,3.26.39,6.54.38,9.81.62,3.43.24,6.88.41,10.29-.28,2.76-.56,4.94-1.85,6.28-4.4,1.18-2.26,1.97-4.66,2.38-7.18,2.12-13.17,2.75-26.49,3.42-39.79.3-5.92-.26-11.85.48-17.77.6-4.83.28-9.7.23-14.55Zm-5.93-.33c-.13,7.84-.32,15.67-.53,23.52-.23,8.79-.49,17.57-.78,26.37-.23,7.08-.33,14.18-1.07,21.24-.17,1.56-.48,3.12-.86,4.64-.55,2.22-1.96,3.37-4.26,3.54-6.2.48-12.34-.14-18.47-1.05-1.85-.28-3.7-.49-5.55-.79-1.82-.29-2.3-.86-2.44-2.72-.36-4.53.21-9.03.54-13.53.53-7.23,1.13-14.45,1.74-21.67.75-8.67,1.55-17.34,2.31-26.01.38-4.41.76-8.84,1.1-13.26.09-1.07.18-2.15.26-3.23.1-1.4.06-2.81.05-4.23-.01-.56.12-1.23-.56-1.53-.75-.32-1.26.2-1.72.66-1.14,1.15-2.25,2.33-3.39,3.48-5.63,5.7-11.08,11.57-16.17,17.76-1.51,1.84-2.33,1.95-4.28.57-4.12-2.91-7.72-6.41-11.15-10.08-1.41-1.52-1.76-3.19-.75-5.13,1.58-3.1,3.76-5.76,5.94-8.42,4.09-4.95,8.2-9.91,12.4-14.77,4.34-5.01,8.64-10.06,13.76-14.35,1.6-1.34,3.32-2.17,5.15-2.61,1.45-.34,2.99-.45,4.58-.34,5.52.35,10.98,1.18,16.43,2.04,1.23.19,2.43.49,3.66.75,1.49.3,2.23,1.22,2.41,2.74.7,6.06,1.4,12.12,1.15,18.24-.18,6.07.58,12.1.48,18.17Z"/>
      <path class="cls-3" d="m183.83,54.75c-.05.76-.51,1.27-.85,1.81-1.01,1.62-2.17,3.14-3.42,4.58-5.66,6.56-11.33,13.11-17,19.66-.3.34-.62.67-.98.95-.56.44-1.22.62-1.83.15-.63-.48-.56-1.19-.24-1.81.36-.69.81-1.35,1.28-1.98,5.39-7.34,11.47-14.06,18.15-20.24,1.13-1.04,2.33-2,3.66-2.78.33-.19.62-.58,1.22-.35Z"/>
      <path class="cls-3" d="m216.15,131.96c.62,3.91.7,7.63.52,11.35-.14,2.86-.32,5.72-.49,8.58-.05.87-.17,1.74-.66,2.5-.35.55-.83.95-1.53.87-.7-.07-1.1-.53-1.35-1.14-.23-.55-.32-1.13-.25-1.71.76-6.34,1.27-12.72,2.87-18.93.18-.69.26-.84.89-1.52Z"/>
      <path class="cls-3" d="m190.69,47.55c.16,1.51-1.47,4.51-2.7,5.03-.66.28-1.31.27-1.85-.25-.61-.59-.62-1.3-.31-2.06.53-1.3,3.09-3.07,4.86-2.72Z"/>
    </g>
  </g>
</svg>